<mxfile host="app.diagrams.net" modified="2025-10-22T00:00:00.000Z" agent="drawio-desktop" version="24.7.0">
  <diagram id="classes" name="Classes">
    <mxGraphModel dx="1200" dy="800" grid="1" gridSize="10" guides="1" tooltips="1" connect="1" arrows="1" fold="1" page="1" pageScale="1" pageWidth="1920" pageHeight="1080" math="0" shadow="0">
      <root>
        <mxCell id="0" />
        <mxCell id="1" parent="0" />

        <!-- Use simple rectangles with header + body text and stereotypes -->
        <mxCell id="c1" value="&lt;b&gt;AlbumsFragment&lt;/b&gt;&lt;br/&gt;&amp;lt;&amp;lt;Fragment&amp;gt;&amp;gt;&lt;br/&gt;binding: FragmentAlbumsBinding&lt;br/&gt;viewModel: AlbumsViewModel&lt;br/&gt;adapter: AlbumsAdapter" style="rounded=0;whiteSpace=wrap;html=1;strokeColor=#000000;fillColor=#FFFFFF;fontColor=#000000;" vertex="1" parent="1"><mxGeometry x="40" y="100" width="300" height="150" as="geometry"/></mxCell>
        <mxCell id="c2" value="&lt;b&gt;AlbumsViewModel&lt;/b&gt;&lt;br/&gt;&amp;lt;&amp;lt;ViewModel&amp;gt;&amp;gt;&lt;br/&gt;+ albums: LiveData&amp;lt;List&amp;lt;AlbumUiModel&amp;gt;&amp;gt;&lt;br/&gt;+ loading: LiveData&amp;lt;Boolean&amp;gt;&lt;br/&gt;+ error: LiveData&amp;lt;String?&amp;gt;&lt;br/&gt;+ fetch()" style="rounded=0;whiteSpace=wrap;html=1;strokeColor=#000000;fillColor=#FFFFFF;fontColor=#000000;" vertex="1" parent="1"><mxGeometry x="380" y="90" width="320" height="180" as="geometry"/></mxCell>
        <mxCell id="c3" value="&lt;b&gt;AlbumRepository&lt;/b&gt;&lt;br/&gt;&amp;lt;&amp;lt;Repository&amp;gt;&amp;gt;&lt;br/&gt;+ fetchAlbums(): List&amp;lt;AlbumUiModel&amp;gt;" style="rounded=0;whiteSpace=wrap;html=1;strokeColor=#000000;fillColor=#FFFFFF;fontColor=#000000;" vertex="1" parent="1"><mxGeometry x="740" y="110" width="300" height="110" as="geometry"/></mxCell>
        <mxCell id="c4" value="&lt;b&gt;AlbumsService&lt;/b&gt;&lt;br/&gt;&amp;lt;&amp;lt;Service Adapter&amp;gt;&amp;gt;&lt;br/&gt;+ GET /albums: List&amp;lt;AlbumDto&amp;gt;" style="rounded=0;whiteSpace=wrap;html=1;strokeColor=#000000;fillColor=#FFFFFF;fontColor=#000000;" vertex="1" parent="1"><mxGeometry x="1060" y="110" width="300" height="100" as="geometry"/></mxCell>
        <mxCell id="c5" value="&lt;b&gt;NetworkModule&lt;/b&gt;&lt;br/&gt;&amp;lt;&amp;lt;Module&amp;gt;&amp;gt;&lt;br/&gt;+ retrofit(baseUrl): Retrofit" style="rounded=0;whiteSpace=wrap;html=1;strokeColor=#000000;fillColor=#FFFFFF;fontColor=#000000;" vertex="1" parent="1"><mxGeometry x="1380" y="110" width="300" height="100" as="geometry"/></mxCell>
        <mxCell id="c6" value="&lt;b&gt;AlbumsAdapter&lt;/b&gt;&lt;br/&gt;&amp;lt;&amp;lt;Adapter&amp;gt;&amp;gt;&lt;br/&gt;+ submitList(list)&lt;br/&gt;+ onAlbumClick(item)" style="rounded=0;whiteSpace=wrap;html=1;strokeColor=#000000;fillColor=#FFFFFF;fontColor=#000000;" vertex="1" parent="1"><mxGeometry x="40" y="300" width="300" height="120" as="geometry"/></mxCell>
        <mxCell id="c7" value="&lt;b&gt;AlbumUiModel&lt;/b&gt;&lt;br/&gt;&amp;lt;&amp;lt;Data&amp;gt;&amp;gt;&lt;br/&gt;+ id: String&lt;br/&gt;+ title: String&lt;br/&gt;+ subtitle: String" style="rounded=0;whiteSpace=wrap;html=1;strokeColor=#000000;fillColor=#FFFFFF;fontColor=#000000;" vertex="1" parent="1"><mxGeometry x="380" y="320" width="320" height="120" as="geometry"/></mxCell>
        <mxCell id="c8" value="&lt;b&gt;AlbumDetailFragment&lt;/b&gt;&lt;br/&gt;&amp;lt;&amp;lt;Fragment&amp;gt;&amp;gt;&lt;br/&gt;+ args: albumId: String" style="rounded=0;whiteSpace=wrap;html=1;strokeColor=#000000;fillColor=#FFFFFF;fontColor=#000000;" vertex="1" parent="1"><mxGeometry x="40" y="450" width="300" height="90" as="geometry"/></mxCell>

        <!-- Edges -->
        <mxCell id="e1" edge="1" source="c1" target="c2" style="endArrow=block;strokeColor=#000000;" parent="1"><mxGeometry relative="1" as="geometry"/></mxCell>
        <mxCell id="e2" edge="1" source="c2" target="c3" style="endArrow=block;strokeColor=#000000;" parent="1"><mxGeometry relative="1" as="geometry"/></mxCell>
        <mxCell id="e3" edge="1" source="c3" target="c4" style="endArrow=block;strokeColor=#000000;" parent="1"><mxGeometry relative="1" as="geometry"/></mxCell>
        <mxCell id="e4" edge="1" source="c4" target="c5" style="endArrow=block;strokeColor=#000000;" parent="1"><mxGeometry relative="1" as="geometry"/></mxCell>
        <mxCell id="e5" edge="1" source="c1" target="c6" style="endArrow=block;strokeColor=#000000;" parent="1"><mxGeometry relative="1" as="geometry"/></mxCell>
        <mxCell id="e6" edge="1" source="c2" target="c7" style="endArrow=open;dashed=1;strokeColor=#000000;" parent="1"><mxGeometry relative="1" as="geometry"/></mxCell>
        <mxCell id="e7" edge="1" source="c1" target="c8" style="endArrow=block;strokeColor=#000000;" parent="1"><mxGeometry relative="1" as="geometry"/></mxCell>
      </root>
    </mxGraphModel>
  </diagram>
</mxfile>

